<?xml version="1.0" encoding="UTF-8"?>
<!DOCTYPE svg PUBLIC "-//W3C//DTD SVG 1.1//EN" "http://www.w3.org/Graphics/SVG/1.1/DTD/svg11.dtd">
<!-- Creator: CorelDRAW 2020 (64-Bit) -->
<svg xmlns="http://www.w3.org/2000/svg" xml:space="preserve" width="164.046mm" height="129.689mm" version="1.1" style="shape-rendering:geometricPrecision; text-rendering:geometricPrecision; image-rendering:optimizeQuality; fill-rule:evenodd; clip-rule:evenodd"
viewBox="0 0 16436.04 12993.71"
 xmlns:xlink="http://www.w3.org/1999/xlink"
 xmlns:xodm="http://www.corel.com/coreldraw/odm/2003">
 <defs>
  <style type="text/css">
   <![CDATA[
    .str0 {stroke:#4B4B4D;stroke-width:7.63;stroke-miterlimit:22.9256}
    .fil2 {fill:#FFCC29}
    .fil1 {fill:#FD0000}
    .fil0 {fill:#4B4B4D;fill-rule:nonzero}
    .fil3 {fill:#FD0000;fill-rule:nonzero}
   ]]>
  </style>
 </defs>
 <g id="Layer_x0020_1">
  <metadata id="CorelCorpID_0Corel-Layer"/>
  <path class="fil0 str0" d="M2770.95 12989.89l0 -624.7 145.07 0 1.43 624.7 -146.5 0zm651.66 0l0 -624.7 117.42 0 293.99 377.52 288.32 -377.52 116.23 0 0 624.7 -134.38 0 0 -386.41c0,-11.09 0.39,-20.36 1.21,-27.63 0.99,-9.69 2.2,-22.6 3.41,-38.74 -4.02,7.67 -7.64,14.94 -10.88,21.6 -3.43,6.65 -6.46,12.69 -9.49,18.35 -7.45,13.32 -12.71,21.8 -15.94,25.43l-234.67 312.35 -29.26 0 -234.66 -313.56c-7.47,-9.69 -14.73,-20.98 -21.78,-34.11 -8.08,-12.9 -13.33,-22.99 -15.75,-30.06 1.21,13.12 2.42,25.23 3.64,36.33l0 30.05 0 386.41 -117.42 0zm1310.24 0l0 -624.7 117.43 0 293.98 377.52 288.32 -377.52 116.22 0 0 624.7 -134.37 0 0 -386.41c0,-11.09 0.39,-20.36 1.21,-27.63 1,-9.69 2.21,-22.6 3.42,-38.74 -4.03,7.67 -7.65,14.94 -10.88,21.6 -3.44,6.65 -6.46,12.69 -9.49,18.35 -7.46,13.32 -12.72,21.8 -15.94,25.43l-234.67 312.35 -29.26 0 -234.67 -313.56c-7.46,-9.69 -14.73,-20.98 -21.78,-34.11 -8.09,-12.9 -13.32,-22.99 -15.74,-30.06 1.21,13.12 2.42,25.23 3.64,36.33l0 30.05 0 386.41 -117.43 0zm1312.66 0l0 -624.7 145.07 0 1.41 624.7 -146.48 0zm1226.7 -513.31l-454 0 0 395.87 454 0 0 -139.21 -237.09 0 0 -106.54 378.74 0 0 215.5c0,56.49 -10.49,95.23 -31.68,116.4 -22.41,20.79 -63.56,31.29 -123.49,31.29l-430.79 0c-59.93,0 -101.08,-10.5 -123.68,-31.29 -20.79,-21.37 -31.28,-60.11 -31.28,-116.4l0 -329.3c0,-56.1 10.49,-94.84 31.28,-116.01 22.39,-21.2 63.55,-31.7 123.68,-31.7l430.79 0c60.13,0 100.89,10.09 122.28,30.48 21.99,20.18 32.88,57.31 32.88,111.38l0 14.53 -141.65 25.42 0 -70.41zm1121.38 -3.64l-326.89 0 0 174.33 326.89 0c25.43,0 42.78,-3.64 52.05,-10.89 8.9,-7.67 13.33,-20.59 13.33,-38.74l0 -75.05c0,-18.57 -4.43,-31.49 -13.33,-38.75 -9.27,-7.25 -26.62,-10.89 -52.05,-10.89zm-469.72 516.95l0 -624.7 533.89 0c49.01,0 85.54,9.3 109.15,28.05 21.6,19.18 32.49,50.25 32.49,93.03l0 146.68c0,41.97 -10.89,72.64 -32.49,91.81 -22.8,19.38 -59.32,29.07 -109.15,29.07l-80.91 0 288.14 236.07 -208.44 0 -251.82 -236.07 -138.02 0 0 236.07 -142.83 0zm1150.61 -249.39l273.41 0 -135.4 -254.24 -138.01 254.24zm-279.65 249.39l352.09 -624.7 140.65 0 358.35 624.7 -163.43 0 -75.06 -136.8 -395.9 0 -72.62 136.8 -144.08 0zm1428.68 -513.31l0 513.31 -145.28 0 0 -513.31 -286.92 0 0 -111.39 720.33 0 0 111.39 -288.13 0zm802.98 513.31l0 -624.7 145.08 0 1.4 624.7 -146.48 0zm627.43 -476.99c0,-56.1 10.5,-94.84 31.28,-116.01 22.38,-21.2 63.56,-31.7 123.68,-31.7l460.05 0c60.74,0 101.49,10.5 122.07,31.7 21.98,20.56 32.88,59.31 32.88,116.01l0 329.3c0,56.89 -10.9,95.64 -32.88,116.4 -20.79,20.79 -61.54,31.29 -122.07,31.29l-460.05 0c-59.92,0 -101.08,-10.5 -123.68,-31.29 -20.78,-21.37 -31.28,-60.11 -31.28,-116.4l0 -329.3zm145.27 359.55l479.42 0 0 -395.87 -479.42 0 0 395.87zm1131.06 117.44l0 -624.7 99.48 0 439.06 368.24c17.95,13.52 31.27,24.83 40.16,33.7 8.07,8.27 18.56,19.57 31.28,33.88 -1.21,-17.95 -2.02,-32.07 -2.63,-42.36 -0.6,-10.29 -1.21,-20.79 -2.02,-31.48 -0.8,-9.68 -1.22,-20.99 -1.22,-33.89l0 -328.1 130.75 0 0 624.7 -99.47 0 -458.64 -386.41c-13.1,-11.29 -22.78,-20.17 -29.26,-26.43 -10.29,-10.48 -17.94,-18.55 -22.59,-24.22 0.4,7.07 1.21,16.55 2.22,28.25 1.21,11.91 2.01,20.59 2.42,26.43 0.8,11.91 1.2,26.83 1.2,44.6l0 337.78 -130.75 0z"/>
  <path class="fil1" d="M9043.79 4044.75l-442.62 185.23 -360.71 -762.25 -203.47 394.18c-59.21,114.08 -102.4,269.05 -191.1,365.45l-428.92 -184.41 194.65 1134.73c-96.58,-48.77 -507.22,-448.59 -573.64,-542.37l-62.64 333.35 -652.76 -104.35 180.93 684.64 -295.95 114.26c83.28,119.22 891.09,738.75 1047.15,869.16l-104.81 447.35c368.61,-49.03 603.75,-166.46 1036.97,-164.26 14.94,268.19 -92.13,885.8 -11.81,1076.87l151.91 1.9 -34.41 -1079.41c359.22,0.46 700.82,90.75 1022.98,177.46l-117.87 -442.41 918.65 -738.54c59.15,-47.32 79.11,-74.51 117.74,-123.12l-288.42 -121.88 193.23 -690.57 -648 97.21 -78.99 -314.75 -565.15 509.91 197.05 -1123.37z"/>
  <path class="fil1" d="M7865.51 2819.49c1664.12,-245.11 3033.86,1049.83 3210.18,2464.27 212.32,1703.24 -1034.31,3044.22 -2477.79,3225.09 -1702.5,213.34 -3016.81,-1008.4 -3219.84,-2457.45 -225.99,-1612.93 889.48,-2996.55 2487.45,-3231.91zm3332.27 3305.43c318.34,-1777.46 -1066.56,-3228.16 -2532.99,-3436.01 -1788.3,-253.48 -3175.76,1022.76 -3411.48,2504.54 -286.04,1798.25 1046.94,3238.03 2535.32,3445.14 1619.56,225.35 3105.26,-816.82 3409.14,-2513.67z"/>
  <path class="fil1" d="M7888.89 3141.21c1498.96,-237.34 2693.65,926.6 2862.51,2168.84 206.82,1521.67 -906.83,2699.92 -2183.49,2876.57 -1503.3,208.03 -2687.68,-901.43 -2867.02,-2165.59 -203.74,-1436.28 766.7,-2654.79 2188.01,-2879.82zm44.25 -141.92c-818.49,105.72 -1406,491.16 -1755.66,933.16 -412.47,521.41 -723.83,1159.56 -616.75,2061.55 160.72,1353.59 1399.11,2509.14 2976.68,2333.12 1370.41,-152.9 2528.26,-1398.8 2356.35,-2963.75 -149.3,-1359.14 -1404.59,-2565.06 -2960.62,-2364.08z"/>
  <path class="fil2" d="M8335.67 2446.92c-369.87,0 -554.01,0.63 -919.62,96.85 -112.51,29.61 -201.35,53.35 -302.78,91.34 -199.48,74.72 -346.56,143.04 -529.94,247.96 -748.42,428.1 -1302.72,1176.26 -1512.74,2013.73 -185.35,739.09 -104.63,1485.58 212.32,2169.08l134.66 259.46c346.07,636.73 1076.83,1208.14 1744.68,1429.16 869.59,287.78 1875.49,218 2652.25,-244.34 45.42,-27.02 78.57,-47.06 122.93,-74.13 48.11,-29.37 77.56,-52.26 124.16,-83.28 123.97,-82.5 333.27,-252.77 444.45,-364.58 66.9,-67.27 125.73,-133.56 187.3,-206.83 476.64,-567.24 682.83,-1128.67 762.82,-1850.94 15.21,-137.26 0.42,-423.31 -9.22,-568.59 -42.22,-636.36 -361.51,-1331.6 -790.34,-1813.05 -126.57,-142.09 -255.92,-274.04 -406.35,-392.28 -41.92,-32.93 -77.46,-57.76 -118.7,-88.75 -78.83,-59.21 -155.59,-110.44 -241.94,-162.57 -430.98,-260.13 -1029.7,-458.26 -1553.92,-458.26zm-1941.99 6472.14c33.37,29.25 70.96,38.87 114.52,48.96l-112.08 -67.35c-101.56,-31.35 -437.17,-277.87 -516.3,-346.94 -21.98,-19.18 -29.53,-21.31 -51.56,-41.79l-207.47 -186.67c-441.54,-443.01 -777.29,-982.05 -953.31,-1587.84 -56.03,-192.83 -113.05,-422.98 -128.33,-649.57 -49.51,-734.33 -8.47,-1146.71 267.06,-1839.2 21.3,-53.58 37.24,-84.63 59.22,-137.83 19.8,-47.95 38.46,-80.46 63.84,-122.86 81.71,-136.45 108.96,-203.89 220.13,-371.08 282.94,-425.61 753.52,-881.66 1212.03,-1132.05 372.29,-203.3 691.05,-340.41 1128.02,-427.78 734.15,-146.77 1638.93,-55.79 2312.13,282.67 218.15,109.66 305.58,158.02 500.69,287.59 567.11,376.65 959.69,871.81 1259.11,1468.75 277.22,552.69 408.83,1292.7 340.62,1958.67 -24.75,241.6 -66.1,441.68 -125.01,652.9 -209.59,751.5 -652.95,1380.66 -1250.43,1871.54 -111.86,91.92 -334.36,243.41 -469.14,317.17l-92.83 54.61c20.06,-4.95 35.65,-9.55 54.84,-17.22 27.86,-11.15 22.17,-8.03 41.23,-25.06 26.03,-7.13 85.59,-34.42 114.44,-48.27 269.34,-129.31 529.87,-278.51 766.97,-456.93l383.25 -311.67c205.17,-180.69 502.74,-512.64 650.93,-738.92l386.76 -650.44c36.38,-85.52 76.78,-161.82 109.76,-242.88 67.55,-165.99 127.11,-336.5 177.65,-517.27 152.98,-547.15 218.11,-1269 129.06,-1881.94 -56.88,-391.57 -152.87,-744.09 -293.52,-1096.32 -127.22,-318.58 -292.05,-622.29 -489.01,-900.84 -80.31,-113.63 -164.94,-237.67 -262.02,-339.56 -25.14,-26.38 -29.02,-18.28 -38.72,-54.61 34.12,9.11 40.63,24.33 64.9,49.19 134.16,137.54 264.69,286.23 380.98,438.41 33.24,43.51 64.03,81.75 99.39,128.79l99.92 138.63c453,721.33 720.95,1344.65 819.13,2219.89 37.16,331.47 50.13,787.37 4.22,1117.78 -73.62,530.13 -189.73,1004.11 -400.36,1476.96 -92.87,208.48 -206.13,412.32 -325.79,607.7 -146.4,239.06 -317.85,451.51 -496.52,665.13 -102.82,122.94 -231.63,247.02 -352.12,353.21l-248.79 217.94c-545.16,446.78 -1194.82,767.7 -1877.15,944.03 -124.09,32.07 -252.8,65.21 -383.19,83.57 -921.06,129.59 -1614.79,91.21 -2470.87,-191.5 -343.69,-113.52 -655.68,-258.92 -956.27,-443.97l-680.09 -491.93c-23.54,-18.9 -35.62,-36.1 -59.15,-54.95l-521.59 -536.35c-141.04,-174.18 -269.32,-354.27 -392.68,-540.79 -94.52,-142.9 -175.55,-299.33 -252.38,-452.91 -28.44,-56.84 -47.6,-105.9 -76.12,-162.46 -107.7,-213.48 -181.9,-453.91 -247.85,-685.62 -145.16,-509.89 -187.89,-1023.29 -181.23,-1562.1 0.68,-55.55 9.13,-61.08 10.78,-113.7 8.6,-274.59 67.92,-561.23 123.49,-820.35 59.01,-275.07 171.66,-621.59 294.79,-866.87l242.33 -473.35c28.92,-51.98 57.4,-92.64 86.67,-141.51 28.35,-47.34 62.06,-99.43 92.82,-145.75 123.24,-185.6 268.79,-351.49 411.86,-521.63 47.55,-56.56 184.27,-220.17 241.63,-235.49 -37.69,56.29 -222.25,270.11 -305.03,389.9 -94.07,136.1 -192.23,280.66 -265.44,429.5 -76.79,156.11 -160.45,306.12 -225.24,469.67 -597.57,1508.11 -389.46,3093.78 511.49,4398.96l230.9 298.08c14.91,18.43 22.4,23.83 38.52,44.46 88.17,112.85 196.29,212.51 297.41,314.53 227.45,229.52 606.16,511.59 896.22,669.94l228.29 124.38c56.25,28.27 185.31,96.38 239.59,110.62z"/>
  <path class="fil2" d="M6393.67 8919.06l2.43 -18.39 112.08 67.35c-43.56,-10.09 -81.15,-19.72 -114.52,-48.96z"/>
  <path class="fil2" d="M10057.42 8896.36l3.25 12.33c-19.06,17.03 -13.37,13.91 -41.23,25.06 -19.2,7.67 -34.79,12.27 -54.84,17.22l92.83 -54.61z"/>
  <path class="fil1" d="M5912.11 857.93c-64.6,15.16 -63.84,-4.69 -56.3,60.83l60.03 -6.76c12.59,45.56 7.77,105.14 34.36,138.78 21.5,27.18 74.16,34.49 117.85,15.36l-8.5 -46.98c-71.61,1.96 -62.99,17.88 -78.62,-115.5l69.66 -8.14 -1.31 -50.95 -74.6 8.36 -6.97 -59.79 -61.27 4.14 5.67 60.67zm331.16 199.34c-13.31,-46.84 -15.06,-82.85 -26.62,-130.16 -19.13,-78.28 -6.2,-57.99 21.89,-111.98 -40.22,9.34 -169.5,2.82 -168.36,124.69 0.41,42.17 23.97,82.96 47.94,98.2 33.73,21.46 77.47,15.41 125.15,19.26zm-557.54 -30l-33.52 39.58c44.23,59.49 188.34,52.28 216.99,-27.72 46.7,-130.46 -149.62,-127.02 -160.75,-163.28 6.17,-65.11 65.92,-43.03 109.72,-33.7 5.99,-23.8 9.78,-23.07 17.88,-45.39 -117.01,-82 -260.87,60.53 -165.06,135.15 28.96,22.53 117.79,27.95 133.43,58.64 12.23,23.97 3.28,90.94 -118.69,36.73zm557.54 30c-47.68,-3.85 -91.41,2.2 -125.15,-19.26 -23.98,-15.24 -47.53,-56.03 -47.94,-98.2 -1.14,-121.87 128.15,-115.35 168.36,-124.69 27.91,-19.65 32.57,-62.11 78.34,-96.72 90.92,-68.74 204.65,-186.72 281.21,-265.64 75.08,-77.4 284.88,-326.14 244.08,-441.92 -89.93,-30.49 -140.1,13.3 -236.25,9.93 -175.34,-6.15 -588.17,448.02 -759.87,598.25 -57.49,50.34 -84.09,98.61 -180.13,102.31 -82.29,3.16 -165.29,10.01 -247.27,10.16 -12.44,-17.79 -39.33,-146.93 -138.27,-71.87 -101.68,77.16 -46.14,84.16 -166.93,87.08 -154.26,3.71 -306.3,-2.51 -461.88,2.23 -22.29,-41.02 -39.95,-88.08 -89.51,-81.27 -43.08,5.93 -68.59,51.95 -98.66,71.32 -32.63,21 -524.47,11.3 -602.25,11.32 -65.22,0.01 -89.04,-11.08 -129.3,27.35 -30.49,29.12 -66.26,51.5 -87.5,83.61 39.72,20.1 338.99,57.55 407.39,67.44l818.99 125.9c69.92,10.19 353.96,45.52 400.26,64.85 -26.91,38.44 -86.35,84.01 -124.11,116.49 -42.51,36.55 -80.34,72.09 -123.53,110.42 -85.69,76.05 -166.98,150.32 -251,225.18 -22.17,19.76 -107.81,103.91 -131.44,107.09 -62.03,8.39 -322.61,-65.55 -372.66,-32.28 -18.03,11.99 -109.3,91.46 -124.52,110.93l54.54 93.81c-58.86,6.29 -376.33,14.27 -407.13,26.91 -21.94,9 -62.27,46.58 -71.96,67l532.7 164.94c-4.85,29.98 -21.1,52.95 -0.85,82.89 70.23,35.31 81.95,-45.12 143.44,-9.34 35.59,20.71 66.08,42.47 104.44,68.43 33.17,22.43 63.04,41.55 103.33,68.68 27.25,18.34 75.56,53.81 104.87,67.61 31.47,-12.14 61.34,-41.3 86.65,-67.07l-84.68 -326.82c92.5,-45.37 467.56,-299.34 546.93,-356.24l521.42 -375.96c24.5,20.41 233.53,379.66 267.85,439.82 34.27,60.1 240.46,418.86 269.41,442.58l151.07 -99.39 -43.01 -202.33c69.65,-22.03 166.12,-117.6 168.75,-124.7 5.41,-57.34 -34.61,-121.19 -91.33,-110.1 -53.51,10.48 -75.25,64.31 -113.31,86.56l-55.91 -262.16c59,-24.07 75.42,-45.17 118.34,-78.4 37.67,-29.21 84.33,-52.05 62.6,-113.46 -21.4,-60.47 -62.17,-70.03 -121.93,-42 -41.2,19.32 -57.44,65.52 -95.07,88.42 -24.18,-93.18 -36.38,-75.96 -40.49,-79.5 4.02,-8.19 4.01,-5.56 5.77,-20.56 1.09,-9.22 0.9,-13.94 -0.05,-23.34l-16.81 -106.32zm-557.54 -30c121.96,54.21 130.92,-12.76 118.69,-36.73 -15.64,-30.69 -104.47,-36.11 -133.43,-58.64 -95.81,-74.62 48.04,-217.15 165.06,-135.15 -8.11,22.31 -11.89,21.59 -17.88,45.39 -43.8,-9.33 -103.55,-31.41 -109.72,33.7 11.13,36.26 207.45,32.82 160.75,163.28 -28.64,80 -172.75,87.22 -216.99,27.72l33.52 -39.58zm220.7 -230.01l61.27 -4.14 6.97 59.79 74.6 -8.36 1.31 50.95 -69.66 8.14c15.63,133.39 7.01,117.46 78.62,115.5l8.5 46.98c-43.68,19.13 -96.34,11.82 -117.85,-15.36 -26.58,-33.63 -21.76,-93.22 -34.36,-138.78l-60.03 6.76c-7.54,-65.52 -8.31,-45.67 56.3,-60.83l-5.67 -60.67z"/>
  <path class="fil3" d="M1099.5 10339.25l0 442.42 -52.57 0c-17.52,-64.24 -40.88,-121.18 -70.08,-170.83 -13.15,-21.91 -27.74,-42.71 -43.8,-62.43 -16.06,-19.71 -34.69,-37.23 -55.86,-52.56 -21.16,-15.34 -44.54,-27.01 -70.08,-35.04 -25.55,-8.04 -53.65,-11.31 -84.32,-9.86 -62.79,4.39 -121.2,28.1 -175.22,71.18 -54.04,43.08 -101.12,98.2 -141.28,165.37 -40.15,67.16 -71.92,142 -95.27,224.5 -23.36,82.5 -35.03,164.63 -35.03,246.4 0,84.69 8.02,168.28 24.08,250.78 16.06,82.5 40.89,157.33 74.46,224.49 33.58,67.17 77.03,123.03 130.33,167.55 53.28,44.53 116.45,69.72 189.46,75.56 58.4,5.84 109.13,0.73 152.21,-15.33 43.07,-16.06 79.2,-34.32 108.41,-54.75 33.58,-24.83 62.79,-54.02 87.61,-87.61l56.96 2.19c-11.69,48.19 -34.31,91.99 -67.91,131.4 -29.21,33.59 -71.19,65.36 -125.93,95.28 -54.76,29.94 -128.14,46.36 -220.12,49.28 -113.88,4.37 -213.9,-15.7 -300.05,-60.24 -86.15,-44.53 -157.7,-105.49 -214.64,-182.88 -56.95,-77.4 -99.65,-166.83 -128.14,-268.3 -28.47,-101.48 -42.71,-206.98 -42.71,-316.5 0,-131.4 20.44,-248.59 61.33,-351.52 40.89,-102.95 94.55,-189.82 160.99,-260.64 66.43,-70.83 141.64,-124.84 225.59,-162.08 83.96,-37.23 169.02,-55.85 255.16,-55.85 39.43,0 73,3.29 100.75,9.86 27.74,6.57 52.21,13.87 73.37,21.89 21.17,8.05 39.44,16.06 54.76,24.1 15.33,8.05 30.3,13.51 44.9,16.42 7.29,2.93 14.97,0.73 22.98,-6.56 8.05,-7.3 15.7,-16.06 23.01,-26.27 7.28,-11.69 13.87,-24.83 19.7,-39.44l56.96 0zm2133.27 1449.92c46.72,61.33 101.84,114.62 165.36,159.9 63.51,45.26 130.32,82.13 200.41,110.59 70.07,28.47 140.53,48.19 211.35,59.14 70.81,10.94 136.89,12.77 198.21,5.48 -132.88,27.73 -264.29,36.5 -394.23,26.28 -55.49,-4.39 -113.53,-13.15 -174.12,-26.28 -60.59,-13.16 -120.82,-32.5 -180.7,-58.05 -59.86,-25.54 -119,-58.77 -177.41,-99.65 -58.4,-40.88 -112.44,-91.25 -162.08,-151.12 -35.04,-42.35 -72.64,-90.17 -112.8,-143.46 -40.15,-53.29 -80.67,-109.51 -121.55,-168.64 -40.88,-59.14 -82.13,-119.01 -123.75,-179.59 -41.62,-60.61 -81.4,-120.1 -119.37,-178.51l0 643.92c4.38,8.77 9.5,16.06 15.33,21.89 5.84,5.85 13.16,10.96 21.91,15.34 8.76,4.39 19.71,6.57 32.85,6.57l0 39.44 -212.47 0 0 -39.44c11.69,0 22.28,-2.18 31.77,-6.57 9.49,-4.38 17.15,-9.49 22.99,-15.34 5.83,-5.83 10.95,-13.13 15.33,-21.89l0 -755.63 -19.71 -30.67c-49.65,-74.45 -102.94,-139.07 -159.9,-193.83 -56.94,-54.75 -114.26,-101.47 -171.92,-140.17 -57.68,-38.69 -114.26,-70.82 -169.75,-96.37 -55.49,-25.55 -105.13,-45.63 -148.92,-60.24 -43.81,-14.6 -81.04,-24.81 -111.7,-30.66 -30.66,-5.84 -49.65,-9.49 -56.94,-10.95 74.46,0 158.06,0.37 250.78,1.09 92.72,0.73 188.71,14.97 288.01,42.72 99.29,27.73 198.58,75.19 297.87,142.35 99.29,67.18 192.01,167.19 278.15,300.05 83.23,128.51 163.54,247.87 240.93,358.12 77.38,110.23 153.3,215.73 227.78,316.48l0 -775.33c-4.38,-8.76 -9.48,-16.06 -15.33,-21.89 -13.16,-11.69 -31.39,-18.99 -54.75,-21.91l0 -37.24 140.18 0 0 -2.18 70.07 0 0 39.43c-20.44,1.45 -36.14,7.29 -47.08,17.52 -10.95,10.22 -17.89,18.25 -20.81,24.1l0 873.9 46 61.32zm-1528.76 -304.43l-122.66 -488.42 -122.64 488.42 245.31 0zm39.41 389.85l0 -59.12c13.15,-4.4 21.19,-12.05 24.11,-23 2.92,-10.95 4.38,-20.07 4.38,-27.38l-41.62 -168.64 -300.06 0 -43.8 175.22c0,7.29 1.45,15.34 4.38,24.1 2.94,8.77 10.95,15.32 24.1,19.72l0 59.12 -229.97 0 0 -56.94c13.15,1.46 26.28,0 39.42,-4.38 11.68,-2.92 22.64,-8.4 32.85,-16.42 10.23,-8.04 17.53,-20.82 21.91,-38.34l245.3 -985.6 275.98 0 249.68 996.57c5.84,14.6 13.52,24.81 22.99,30.65 9.51,5.84 20.09,10.23 31.75,13.15 11.68,2.93 24.84,4.38 39.44,4.38l0 56.94 -400.82 0z"/>
  <path class="fil3" d="M4972.43 10775.09c103.67,-1.45 196.39,16.8 278.17,54.76 35.03,16.07 69.34,37.23 102.93,63.51 33.59,26.3 63.52,59.14 89.81,98.57 26.28,39.42 47.45,86.52 63.51,141.26 16.05,54.76 24.1,119.37 24.1,193.84 0,94.91 -10.59,174.12 -31.77,237.63 -21.17,63.52 -48.55,115.72 -82.13,156.61 -33.57,40.88 -71.19,71.9 -112.81,93.08 -41.62,21.17 -83.22,36.51 -124.84,46.01 -41.62,9.47 -80.66,14.6 -117.18,15.32 -36.49,0.73 -66.42,1.09 -89.79,1.09l-337.3 0 0 -56.94c11.68,0 21.91,-2.93 30.68,-8.78 7.28,-4.37 14.24,-10.21 20.8,-17.51 6.56,-7.29 9.86,-17.52 9.86,-30.65l0 -876.1c0,-11.68 -3.3,-21.17 -9.86,-28.47 -6.56,-7.3 -13.52,-13.15 -20.8,-17.52 -8.77,-5.84 -19,-9.5 -30.68,-10.95l0 -54.76 337.3 0zm0 1022.85c91.99,11.67 173.04,4.37 243.12,-21.91 30.66,-11.68 60.23,-28.1 88.7,-49.26 28.47,-21.18 54.03,-49.65 76.66,-85.42 22.64,-35.78 41.26,-79.21 55.86,-130.32 14.6,-51.12 21.91,-112.43 21.91,-183.98 0,-62.79 -6.58,-117.54 -19.71,-164.26 -13.17,-46.73 -31.05,-87.62 -53.67,-122.65 -22.63,-35.04 -48.54,-64.24 -77.75,-87.61 -29.21,-23.35 -59.13,-42.34 -89.79,-56.94 -71.55,-35.05 -153.33,-53.3 -245.32,-54.76l0 957.13zm1086.36 -968.08c-11.68,1.45 -21.9,5.11 -30.67,10.95 -7.3,4.38 -14.24,10.22 -20.8,17.52 -6.58,7.3 -9.86,16.79 -9.86,28.47l0 878.27c0,11.68 3.28,21.53 9.86,29.58 6.56,8.04 13.5,13.5 20.8,16.41 8.77,5.85 18.99,8.78 30.67,8.78l0 56.94 -61.33 0 -275.96 0 -61.35 0 0 -56.94c11.68,0 21.92,-2.93 30.69,-8.78 7.29,-2.92 14.22,-8.38 20.8,-16.41 6.56,-8.05 9.86,-17.89 9.86,-29.58l0 -15.33 0 -847.61 0 -15.33c0,-11.68 -3.3,-21.17 -9.86,-28.47 -6.58,-7.3 -13.51,-13.15 -20.8,-17.52 -8.77,-5.84 -19.01,-9.5 -30.69,-10.95l0 -54.76 61.35 0 275.96 0 61.33 0 0 54.76zm2102.6 922.07l0 15.34c0,11.67 3.29,21.54 9.87,29.58 6.56,8.03 13.51,13.51 20.79,16.42 8.78,5.84 18.99,8.76 30.67,8.76l0 56.95 -61.33 0 -111.69 0 -61.34 0 -534.4 -806 0 678.96 0 15.34c0,11.67 3.29,21.54 9.85,29.58 6.58,8.03 13.5,13.51 20.81,16.42 8.76,5.84 18.99,8.76 30.68,8.76l0 56.95 -61.34 0 -111.7 0 -61.33 0 0 -56.95c11.68,0 21.91,-2.92 30.66,-8.76 7.31,-2.92 14.24,-8.4 20.82,-16.42 6.57,-8.04 9.85,-17.9 9.85,-29.58l0 -15.34 0 -847.6 0 -15.34c0,-11.67 -3.28,-21.17 -9.85,-28.46 -6.58,-7.3 -13.51,-13.15 -20.82,-17.53 -8.75,-5.84 -18.98,-9.48 -30.66,-10.95l0 -54.74 61.33 0 111.7 0 61.34 0 534.4 816.95 0 -689.92 0 -15.34c0,-11.67 -3.3,-21.17 -9.86,-28.46 -6.56,-7.3 -13.51,-13.15 -20.8,-17.53 -8.77,-5.84 -19,-9.48 -30.68,-10.95l0 -54.74 61.34 0 111.69 0 61.33 0 0 54.74c-11.68,1.47 -21.89,5.11 -30.67,10.95 -7.28,4.39 -14.23,10.23 -20.79,17.53 -6.58,7.29 -9.87,16.79 -9.87,28.46l0 15.34 0 847.6z"/>
  <path class="fil3" d="M10005.57 10343.63l0 111.71 0 151.12 -46 0c-2.92,-27.74 -9.5,-52.57 -19.72,-74.47 -8.76,-18.98 -21.53,-36.5 -38.32,-52.57 -16.79,-16.05 -39.8,-24.08 -69,-24.08l-19.7 0 -619.85 0 0 650.49 177.41 0 19.73 0c29.2,0 52.55,-7.67 70.07,-23 17.51,-15.34 30.66,-32.49 39.43,-51.48 10.23,-21.9 16.06,-47.45 17.52,-76.65l45.99 0 0 151.13 0 111.69 0 151.12 -45.99 0c-1.46,-27.74 -7.29,-52.56 -17.52,-74.47 -8.77,-18.97 -21.91,-36.49 -39.43,-52.55 -17.52,-16.07 -40.88,-24.1 -70.07,-24.1l-19.73 0 -177.41 0 0 670.21 619.85 0 19.7 0c29.21,0 52.21,-7.67 69,-23 16.79,-15.34 29.57,-32.49 38.32,-51.47 10.22,-21.9 16.8,-47.45 19.72,-76.66l46 0 0 151.13 0 111.69 -812.58 0 -275.96 0 -107.32 0 0 -61.34c20.43,0 37.22,-3.64 50.37,-10.94 13.15,-7.29 24.1,-14.6 32.84,-21.9 10.24,-8.75 18.27,-19.72 24.11,-32.84l0 -1401.75c-5.83,-13.14 -13.87,-24.09 -24.11,-32.84 -8.75,-7.3 -19.7,-14.25 -32.84,-20.82 -13.15,-6.57 -29.94,-10.58 -50.37,-12.04l0 -61.33 107.32 0 275.96 0 812.58 0zm1432.4 1533.15l-289.1 0 -4.39 -52.56c4.39,0 7.3,-2.19 8.77,-6.57 1.45,-2.93 1.45,-7.29 0,-13.14 -1.46,-5.84 -6.58,-14.61 -15.33,-26.28l-295.69 -328.54c-46.72,62.77 -84.33,113.53 -112.81,152.21 -28.47,38.7 -50.37,69 -65.71,90.89 -15.33,21.91 -25.92,36.87 -31.75,44.91 -5.85,8.03 -9.5,13.15 -10.95,15.33 -1.46,2.19 -2.19,2.93 -2.19,2.19 0,-0.74 -1.45,1.09 -4.38,5.48 -7.3,14.6 -8.04,29.2 -2.18,43.8 2.92,5.84 7.29,11.68 13.15,17.51l0 54.75 -453.39 0 0 -54.75c18.98,-2.92 37.97,-7.3 56.95,-13.14 16.06,-4.38 32.85,-10.95 50.37,-19.72 17.52,-8.76 32.87,-18.99 46,-30.67l365.78 -473.08c-86.15,-96.36 -152.95,-170.83 -200.4,-223.4 -47.46,-52.57 -82.87,-91.63 -106.23,-117.17 -23.35,-25.56 -38.32,-41.26 -44.91,-47.1 -6.56,-5.83 -12.05,-10.94 -16.43,-15.32 -16.06,-11.68 -35.03,-20.81 -56.94,-27.38 -21.89,-6.58 -43.08,-11.32 -63.52,-14.24 -23.34,-4.38 -46.72,-7.29 -70.08,-8.77l0 -54.74 297.87 0 2.2 52.56c-5.86,1.45 -9.5,4.39 -10.95,8.76 -1.46,2.93 -0.73,8.04 2.18,15.34 2.91,7.29 10.22,17.52 21.89,30.65l300.07 332.93 254.05 -330.72c11.69,-16.06 13.17,-29.93 4.4,-41.62 -4.4,-5.83 -10.24,-10.22 -17.52,-13.15l0 -54.74 416.15 0 0 54.74c-17.53,1.47 -34.33,5.11 -50.39,10.95 -14.61,4.39 -29.94,10.23 -46,17.53 -16.06,7.29 -30.66,16.05 -43.8,26.28 -2.92,1.45 -8.02,5.84 -15.33,13.14 -2.92,4.39 -5.83,8.04 -8.76,10.96l-346.06 470.89 346.06 385.48c16.07,13.15 35.77,23.74 59.14,31.75 23.35,8.04 45.26,13.52 65.7,16.44 24.84,4.38 49.64,6.56 74.47,6.56l0 54.75zm455.57 -1106.06c30.66,0 65.71,0.36 105.13,1.09 39.41,0.74 79.57,4.02 120.46,9.85 40.89,5.85 80.66,15.34 119.37,28.48 38.68,13.14 73.01,32.48 102.94,58.04 29.93,25.55 54.01,58.4 72.27,98.55 18.26,40.17 27.37,89.43 27.37,147.85 0,70.07 -10.21,128.13 -30.66,174.11 -20.43,46 -47.08,82.87 -79.93,110.61 -32.85,27.73 -69.72,48.55 -110.62,62.42 -40.87,13.88 -81.76,23 -122.64,27.37 -40.89,4.39 -79.21,6.21 -114.99,5.48 -35.77,-0.73 -65.33,-1.09 -88.69,-1.09l0 251.88 0 13.13c0,13.15 3.29,23.36 9.85,30.67 6.57,7.29 13.51,13.14 20.81,17.52 8.76,5.84 18.98,8.77 30.66,8.77l0 56.95 -61.32 0 -275.98 0 -61.32 0 0 -56.95c11.68,0 21.89,-2.93 30.66,-8.77 7.31,-4.39 14.24,-10.23 20.8,-17.52 6.58,-7.3 9.86,-17.52 9.86,-30.67l0 -13.13 0 -849.81 0 -13.15c0,-11.68 -3.28,-21.54 -9.86,-29.57 -6.56,-8.04 -13.49,-14.25 -20.8,-18.62 -8.77,-5.85 -18.98,-8.78 -30.66,-8.78l0 -54.74 61.32 0 275.98 0zm0 643.93c87.6,8.76 166.46,5.1 236.53,-10.96 29.21,-7.29 58.04,-17.52 86.52,-30.66 28.47,-13.15 53.67,-31.4 75.55,-54.76 21.91,-23.35 39.81,-51.47 53.67,-84.32 13.88,-32.85 20.8,-72.64 20.8,-119.36 0,-40.89 -6.92,-76.31 -20.8,-106.23 -13.87,-29.94 -31.76,-55.49 -53.67,-76.66 -21.88,-21.18 -47.08,-37.96 -75.55,-50.38 -28.47,-12.41 -57.31,-22.26 -86.52,-29.57 -70.07,-16.06 -148.93,-21.17 -236.53,-15.33l0 578.23zm970.26 8.76c87.62,7.29 166.46,2.92 236.55,-13.15 29.21,-7.3 58.02,-17.52 86.51,-30.67 28.47,-13.14 54.03,-31.39 76.66,-54.75 22.63,-23.35 40.88,-51.47 54.75,-84.32 13.88,-32.85 20.82,-72.64 20.82,-119.37 0,-40.89 -6.94,-76.3 -20.82,-106.22 -13.88,-29.94 -32.12,-55.13 -54.75,-75.56 -22.62,-20.44 -48.18,-37.23 -76.66,-50.38 -28.48,-13.15 -57.3,-23.35 -86.51,-30.66 -70.09,-16.06 -148.93,-20.45 -236.55,-13.15l0 578.23zm0 78.84l2.2 -2.18 -2.2 0 0 2.18zm273.78 -17.51c35.04,8.76 65.7,23.35 91.99,43.8 26.29,20.44 48.92,43.79 67.9,70.07 18.98,26.28 34.68,54.03 47.09,83.23 12.41,29.21 22.25,56.96 29.57,83.23 5.83,11.68 13.88,21.18 24.08,28.47 10.23,7.3 20.46,12.41 30.69,15.34 11.66,4.38 24.08,6.57 37.22,6.57l0 63.51 -74.47 0 -251.88 -2.19 -61.32 0 0 -54.75c10.23,0 18.99,-2.92 26.29,-8.76 7.29,-4.38 13.15,-10.58 17.51,-18.62 4.38,-8.05 5.84,-18.63 4.38,-31.75 -14.6,-55.49 -36.13,-100.4 -64.6,-134.71 -28.47,-34.32 -57.32,-60.97 -86.52,-79.95 -35.04,-21.89 -72.29,-37.22 -111.7,-45.99l0 265.02c0,11.67 3.29,21.54 9.86,29.58 6.57,8.03 13.5,13.51 20.81,16.42 8.75,5.84 18.99,8.76 30.67,8.76l0 56.95 -398.63 0 0 -56.95c11.69,0 21.9,-2.92 30.67,-8.76 7.3,-2.92 14.24,-8.4 20.8,-16.42 6.58,-8.04 9.86,-17.9 9.86,-29.58l0 -878.28c0,-11.67 -3.28,-21.17 -9.86,-28.46 -6.56,-7.3 -13.5,-13.15 -20.8,-17.53 -8.77,-5.84 -18.98,-9.48 -30.67,-10.95l0 -54.74 337.3 0c30.67,0 65.71,0.35 105.14,1.09 39.41,0.73 79.57,4.02 120.46,9.86 40.87,5.84 80.66,15.33 119.37,28.46 38.68,13.15 73.01,32.49 102.94,58.04 29.93,25.56 54.01,58.41 72.28,98.56 18.24,40.16 27.37,89.44 27.37,147.84 0,59.87 -7.66,110.97 -22.99,153.32 -15.33,42.33 -35.78,77.75 -61.33,106.22 -25.56,28.47 -54.75,50.74 -87.61,66.8 -32.85,16.06 -66.81,28.47 -101.84,37.24zm1342.6 -709.65l0 111.71 0 151.13 -45.99 0c-1.46,-27.75 -7.31,-52.58 -17.52,-74.47 -8.77,-18.99 -21.91,-36.51 -39.44,-52.56 -17.51,-16.07 -40.89,-24.1 -70.08,-24.1l-19.72 0 -352.62 0 0 383.27 85.41 0 19.72 0c29.21,0 52.57,-5.83 70.09,-17.51 17.52,-11.68 30.66,-24.82 39.44,-39.43 10.22,-16.05 16.06,-35.04 17.51,-56.93l45.99 0 0 113.87 0 111.71 0 116.07 -45.99 0c-1.45,-21.89 -7.29,-40.88 -17.51,-56.94 -8.78,-14.6 -21.91,-28.1 -39.44,-40.52 -17.52,-12.4 -40.89,-18.62 -70.09,-18.62l-19.72 0 -85.41 0 0 387.68 352.62 0 19.72 0c29.2,0 52.57,-7.67 70.08,-23 17.52,-15.34 30.67,-32.49 39.44,-51.48 10.21,-21.9 16.06,-47.45 17.52,-76.65l45.99 0 0 151.13 0 111.68 -812.56 0 0 -4.38 -8.77 0 -61.33 0 0 -56.94c11.68,0 21.9,-2.93 30.67,-8.78 7.29,-2.92 14.24,-8.38 20.8,-16.41 6.58,-8.05 9.86,-17.89 9.86,-29.58l0 -15.33 0 -847.61 0 -15.33c0,-11.68 -3.28,-21.17 -9.86,-28.47 -6.56,-7.3 -13.51,-13.15 -20.8,-17.52 -8.77,-5.84 -18.99,-9.5 -30.67,-10.95l0 -54.76 61.33 0 8.77 0 267.19 0 545.37 0zm600.11 107.34c-51.09,4.38 -94.17,23.73 -129.21,58.03 -35.06,34.33 -52.57,73.38 -52.57,117.18 0,29.2 5.46,54.74 16.42,76.65 10.96,21.92 26.65,41.62 47.09,59.14 20.45,17.52 43.8,33.59 70.09,48.19 26.29,14.6 54.75,28.45 85.42,41.62 74.46,32.11 134.34,62.41 179.59,90.88 45.27,28.47 79.57,56.58 102.94,84.32 23.36,27.74 38.68,55.86 46,84.32 7.29,28.47 10.96,58.77 10.96,90.89 0,81.78 -35.43,146.02 -106.24,192.74 -70.81,46.72 -174.11,64.97 -309.91,54.75 -51.11,-2.92 -95.64,-11.32 -133.6,-25.18 -37.97,-13.88 -70.45,-27.38 -97.48,-40.52 -27.01,-13.16 -49.63,-23.74 -67.89,-31.77 -18.25,-8.03 -32.49,-9.12 -42.7,-3.28 -10.23,5.84 -17.54,14.24 -21.92,25.19 -4.37,10.94 -8.02,22.26 -10.93,33.94 -2.94,13.14 -4.39,27.01 -4.39,41.61l-46 0 0 -378.9 41.62 0c10.22,49.64 30.66,93.45 61.32,131.41 13.16,16.06 28.85,32.49 47.09,49.28 18.25,16.79 40.17,31.76 65.72,44.91 25.54,13.13 55.12,24.08 88.71,32.85 33.57,8.77 71.53,13.87 113.88,15.32 23.36,1.47 43.43,-1.81 60.24,-9.85 16.78,-8.04 31.02,-18.63 42.7,-31.77 11.69,-13.13 20.44,-28.1 26.29,-44.89 5.83,-16.78 9.5,-33.22 10.95,-49.28 5.84,-71.56 -55.48,-135.8 -183.98,-192.74 -52.55,-23.36 -103.31,-45.63 -152.22,-66.8 -48.9,-21.18 -91.25,-46 -127.02,-74.46 -35.79,-28.48 -63.17,-63.15 -82.14,-104.05 -18.98,-40.88 -24.1,-92.71 -15.33,-155.49 8.75,-61.35 29.57,-109.52 62.41,-144.57 32.85,-35.05 70.83,-61.33 113.91,-78.85 43.06,-17.52 87.24,-28.84 132.49,-33.94 45.28,-5.11 84.69,-7.67 118.28,-7.67 58.41,0 107.33,5.13 146.74,15.34 39.43,10.23 72.64,20.81 99.66,31.76 27.01,10.94 48.54,19.7 64.6,26.28 16.07,6.57 29.95,5.48 41.62,-3.29 4.39,-4.38 8.04,-16.79 10.95,-37.23 1.45,-8.77 2.92,-19.71 4.38,-32.86l48.2 0 0 359.21 -37.25 0c-16.05,-51.11 -38.69,-96.37 -67.9,-135.79 -24.81,-33.59 -59.12,-63.52 -102.93,-89.81 -43.8,-26.28 -100.02,-37.22 -168.66,-32.84zm979.04 0c-51.12,4.38 -94.18,23.73 -129.24,58.03 -35.03,34.33 -52.55,73.38 -52.55,117.18 0,29.2 5.47,54.74 16.42,76.65 10.96,21.92 26.66,41.62 47.09,59.14 20.44,17.52 43.8,33.59 70.09,48.19 26.29,14.6 54.74,28.45 85.4,41.62 74.47,32.11 134.34,62.41 179.61,90.88 45.27,28.47 79.57,56.58 102.93,84.32 23.37,27.74 38.7,55.86 46.01,84.32 7.29,28.47 10.94,58.77 10.94,90.89 0,81.78 -35.4,146.02 -106.22,192.74 -70.83,46.72 -174.12,64.97 -309.92,54.75 -51.1,-2.92 -95.62,-11.32 -133.6,-25.18 -37.96,-13.88 -70.44,-27.38 -97.46,-40.52 -27.02,-13.16 -49.64,-23.74 -67.91,-31.77 -18.24,-8.03 -32.48,-9.12 -42.71,-3.28 -10.21,5.84 -17.51,14.24 -21.89,25.19 -4.38,10.94 -8.04,22.26 -10.95,33.94 -2.93,13.14 -4.38,27.01 -4.38,41.61l-45.99 0 0 -378.9 41.61 0c10.21,49.64 30.66,93.45 61.33,131.41 13.14,16.06 28.84,32.49 47.09,49.28 18.24,16.79 40.15,31.76 65.7,44.91 25.56,13.13 55.13,24.08 88.7,32.85 33.58,8.77 71.55,13.87 113.91,15.32 23.34,1.47 43.43,-1.81 60.23,-9.85 16.78,-8.04 31.02,-18.63 42.71,-31.77 11.68,-13.13 20.43,-28.1 26.28,-44.89 5.84,-16.78 9.48,-33.22 10.94,-49.28 5.85,-71.56 -55.47,-135.8 -183.97,-192.74 -52.57,-23.36 -103.31,-45.63 -152.21,-66.8 -48.93,-21.18 -91.26,-46 -127.05,-74.46 -35.76,-28.48 -63.14,-63.15 -82.12,-104.05 -18.98,-40.88 -24.11,-92.71 -15.34,-155.49 8.76,-61.35 29.58,-109.52 62.43,-144.57 32.84,-35.05 70.82,-61.33 113.88,-78.85 43.07,-17.52 87.25,-28.84 132.51,-33.94 45.28,-5.11 84.68,-7.67 118.27,-7.67 58.41,0 107.34,5.13 146.75,15.34 39.43,10.23 72.64,20.81 99.66,31.76 27.02,10.94 48.54,19.7 64.6,26.28 16.06,6.57 29.94,5.48 41.62,-3.29 4.38,-4.38 8.04,-16.79 10.95,-37.23 1.46,-8.77 2.93,-19.71 4.38,-32.86l48.18 0 0 359.21 -37.22 0c-16.06,-51.11 -38.7,-96.37 -67.91,-135.79 -24.81,-33.59 -59.13,-63.52 -102.94,-89.81 -43.81,-26.28 -100.01,-37.22 -168.64,-32.84z"/>
  <path class="fil3" d="M6707.89 11486.92l-122.64 -488.42 -122.66 488.42 245.31 0zm352.61 293.49c7.31,11.68 15.33,20.08 24.11,25.19 8.75,5.1 18.24,9.12 28.47,12.04 10.22,2.92 21.89,3.65 35.03,2.19l0 56.94 -400.81 0 0 -59.13c11.69,-4.38 19.36,-10.95 23.01,-19.71 3.64,-8.77 5.46,-16.79 5.46,-24.1l-41.6 -175.23 -300.07 0 -43.8 164.28c-1.45,4.37 -1.1,13.13 1.11,26.27 2.16,13.14 11.3,22.63 27.36,28.47l0 59.13 -229.97 0 0 -56.94c13.15,1.45 26.29,0 39.44,-4.38 11.67,-2.93 22.61,-8.77 32.84,-17.52 10.22,-8.77 17.52,-21.91 21.9,-39.44l245.31 -983.41 275.96 0 256.25 1005.32z"/>
  <path class="fil3" d="M4036.5 11486.92l-122.65 -488.42 -122.65 488.42 245.31 0zm352.61 293.49c7.31,11.68 15.33,20.08 24.11,25.19 8.75,5.1 18.24,9.12 28.47,12.04 10.21,2.92 21.89,3.65 35.03,2.19l0 56.94 -400.81 0 0 -59.13c11.69,-4.38 19.36,-10.95 23.01,-19.71 3.64,-8.77 5.46,-16.79 5.46,-24.1l-41.61 -175.23 -300.06 0 -43.8 164.28c-1.46,4.37 -1.1,13.13 1.11,26.27 2.16,13.14 11.3,22.63 27.36,28.47l0 59.13 -229.97 0 0 -56.94c13.15,1.45 26.29,0 39.44,-4.38 11.67,-2.93 22.62,-8.77 32.84,-17.52 10.22,-8.77 17.53,-21.91 21.9,-39.44l245.31 -983.41 275.96 0 256.25 1005.32z"/>
 </g>
</svg>
